<mxfile host="app.diagrams.net" agent="Mozilla/5.0 (Windows NT 10.0; Win64; x64) AppleWebKit/537.36 (KHTML, like Gecko) Chrome/128.0.0.0 Safari/537.36 OPR/114.0.0.0 (Edition Yx GX 03)" version="25.0.3">
  <diagram name="Страница — 1" id="s1N9AcsyB8TP1igfHAV_">
    <mxGraphModel dx="1838" dy="448" grid="1" gridSize="10" guides="1" tooltips="1" connect="1" arrows="1" fold="1" page="1" pageScale="1" pageWidth="827" pageHeight="1169" math="0" shadow="0">
      <root>
        <mxCell id="0" />
        <mxCell id="1" parent="0" />
        <mxCell id="6DJzkv-PkJwYkkrWsRg8-2" value="Покупатель" style="shape=umlActor;verticalLabelPosition=bottom;verticalAlign=top;html=1;outlineConnect=0;" vertex="1" parent="1">
          <mxGeometry x="80" y="50" width="30" height="60" as="geometry" />
        </mxCell>
        <mxCell id="6DJzkv-PkJwYkkrWsRg8-3" value="Продавец" style="shape=umlActor;verticalLabelPosition=bottom;verticalAlign=top;html=1;outlineConnect=0;" vertex="1" parent="1">
          <mxGeometry x="220" y="50" width="30" height="60" as="geometry" />
        </mxCell>
        <mxCell id="6DJzkv-PkJwYkkrWsRg8-5" value="" style="shape=corner;whiteSpace=wrap;html=1;" vertex="1" parent="1">
          <mxGeometry x="87.5" y="140" width="15" height="510" as="geometry" />
        </mxCell>
        <mxCell id="6DJzkv-PkJwYkkrWsRg8-6" value="" style="shape=corner;whiteSpace=wrap;html=1;" vertex="1" parent="1">
          <mxGeometry x="227.5" y="140" width="15" height="510" as="geometry" />
        </mxCell>
        <mxCell id="6DJzkv-PkJwYkkrWsRg8-7" value="Приложение" style="rounded=0;whiteSpace=wrap;html=1;" vertex="1" parent="1">
          <mxGeometry x="324" y="80" width="90" height="40" as="geometry" />
        </mxCell>
        <mxCell id="6DJzkv-PkJwYkkrWsRg8-8" value="База данных" style="rounded=0;whiteSpace=wrap;html=1;" vertex="1" parent="1">
          <mxGeometry x="450" y="80" width="90" height="40" as="geometry" />
        </mxCell>
        <mxCell id="6DJzkv-PkJwYkkrWsRg8-10" value="Товар" style="rounded=0;whiteSpace=wrap;html=1;" vertex="1" parent="1">
          <mxGeometry x="600" y="80" width="90" height="40" as="geometry" />
        </mxCell>
        <mxCell id="6DJzkv-PkJwYkkrWsRg8-11" value="" style="endArrow=none;dashed=1;html=1;rounded=0;" edge="1" parent="1">
          <mxGeometry width="50" height="50" relative="1" as="geometry">
            <mxPoint x="644.5" y="630" as="sourcePoint" />
            <mxPoint x="644.5" y="120" as="targetPoint" />
          </mxGeometry>
        </mxCell>
        <mxCell id="6DJzkv-PkJwYkkrWsRg8-12" value="" style="endArrow=none;dashed=1;html=1;rounded=0;" edge="1" parent="1" source="6DJzkv-PkJwYkkrWsRg8-22">
          <mxGeometry width="50" height="50" relative="1" as="geometry">
            <mxPoint x="370" y="630" as="sourcePoint" />
            <mxPoint x="370" y="120" as="targetPoint" />
          </mxGeometry>
        </mxCell>
        <mxCell id="6DJzkv-PkJwYkkrWsRg8-13" value="" style="endArrow=none;dashed=1;html=1;rounded=0;" edge="1" parent="1">
          <mxGeometry width="50" height="50" relative="1" as="geometry">
            <mxPoint x="494.5" y="630" as="sourcePoint" />
            <mxPoint x="494.5" y="120" as="targetPoint" />
          </mxGeometry>
        </mxCell>
        <mxCell id="6DJzkv-PkJwYkkrWsRg8-14" value="" style="endArrow=classic;html=1;rounded=0;entryX=-0.093;entryY=0.042;entryDx=0;entryDy=0;entryPerimeter=0;" edge="1" parent="1" target="6DJzkv-PkJwYkkrWsRg8-6">
          <mxGeometry width="50" height="50" relative="1" as="geometry">
            <mxPoint x="102.5" y="160" as="sourcePoint" />
            <mxPoint x="182.5" y="160" as="targetPoint" />
          </mxGeometry>
        </mxCell>
        <mxCell id="6DJzkv-PkJwYkkrWsRg8-16" value="Запрос на покупку" style="text;html=1;align=center;verticalAlign=middle;resizable=0;points=[];autosize=1;strokeColor=none;fillColor=none;" vertex="1" parent="1">
          <mxGeometry x="97.5" y="140" width="130" height="30" as="geometry" />
        </mxCell>
        <mxCell id="6DJzkv-PkJwYkkrWsRg8-17" value="" style="endArrow=classic;html=1;rounded=0;entryX=0.826;entryY=0.117;entryDx=0;entryDy=0;entryPerimeter=0;" edge="1" parent="1">
          <mxGeometry width="50" height="50" relative="1" as="geometry">
            <mxPoint x="227.61" y="210.33" as="sourcePoint" />
            <mxPoint x="97.5000000000001" y="209.99999999999997" as="targetPoint" />
            <Array as="points">
              <mxPoint x="147.61" y="210.33" />
            </Array>
          </mxGeometry>
        </mxCell>
        <mxCell id="6DJzkv-PkJwYkkrWsRg8-18" value="Запрос информации&amp;nbsp;&lt;div&gt;о клиенте&lt;/div&gt;" style="text;html=1;align=center;verticalAlign=middle;resizable=0;points=[];autosize=1;strokeColor=none;fillColor=none;" vertex="1" parent="1">
          <mxGeometry x="97.5" y="190" width="140" height="40" as="geometry" />
        </mxCell>
        <mxCell id="6DJzkv-PkJwYkkrWsRg8-20" value="" style="endArrow=open;endSize=12;dashed=1;html=1;rounded=0;" edge="1" parent="1">
          <mxGeometry y="-70" width="160" relative="1" as="geometry">
            <mxPoint x="102.5" y="280" as="sourcePoint" />
            <mxPoint x="230" y="280" as="targetPoint" />
            <mxPoint as="offset" />
          </mxGeometry>
        </mxCell>
        <mxCell id="6DJzkv-PkJwYkkrWsRg8-21" value="Информация&amp;nbsp;&lt;div&gt;о клиенте&lt;/div&gt;" style="text;html=1;align=center;verticalAlign=middle;resizable=0;points=[];autosize=1;strokeColor=none;fillColor=none;" vertex="1" parent="1">
          <mxGeometry x="112.5" y="260" width="100" height="40" as="geometry" />
        </mxCell>
        <mxCell id="6DJzkv-PkJwYkkrWsRg8-23" value="" style="endArrow=none;dashed=1;html=1;rounded=0;" edge="1" parent="1" target="6DJzkv-PkJwYkkrWsRg8-22">
          <mxGeometry width="50" height="50" relative="1" as="geometry">
            <mxPoint x="370" y="630" as="sourcePoint" />
            <mxPoint x="370" y="120" as="targetPoint" />
          </mxGeometry>
        </mxCell>
        <mxCell id="6DJzkv-PkJwYkkrWsRg8-22" value="" style="shape=corner;whiteSpace=wrap;html=1;" vertex="1" parent="1">
          <mxGeometry x="364" y="280" width="10" height="120" as="geometry" />
        </mxCell>
        <mxCell id="6DJzkv-PkJwYkkrWsRg8-24" value="" style="endArrow=classic;html=1;rounded=0;" edge="1" parent="1">
          <mxGeometry width="50" height="50" relative="1" as="geometry">
            <mxPoint x="242.5" y="300" as="sourcePoint" />
            <mxPoint x="360" y="300" as="targetPoint" />
          </mxGeometry>
        </mxCell>
        <mxCell id="6DJzkv-PkJwYkkrWsRg8-25" value="Запрос на поиск&amp;nbsp;&lt;div&gt;клиента&lt;/div&gt;" style="text;html=1;align=center;verticalAlign=middle;resizable=0;points=[];autosize=1;strokeColor=none;fillColor=none;" vertex="1" parent="1">
          <mxGeometry x="242.5" y="280" width="120" height="40" as="geometry" />
        </mxCell>
        <mxCell id="6DJzkv-PkJwYkkrWsRg8-27" value="" style="edgeStyle=elbowEdgeStyle;elbow=horizontal;endArrow=classic;html=1;curved=0;rounded=0;endSize=8;startSize=8;entryX=0;entryY=0;entryDx=10;entryDy=40;entryPerimeter=0;" edge="1" parent="1" target="6DJzkv-PkJwYkkrWsRg8-22">
          <mxGeometry width="50" height="50" relative="1" as="geometry">
            <mxPoint x="380" y="290" as="sourcePoint" />
            <mxPoint x="550" y="310" as="targetPoint" />
            <Array as="points">
              <mxPoint x="410" y="290" />
            </Array>
          </mxGeometry>
        </mxCell>
        <mxCell id="6DJzkv-PkJwYkkrWsRg8-28" value="Поиск клиента" style="text;html=1;align=center;verticalAlign=middle;resizable=0;points=[];autosize=1;strokeColor=none;fillColor=none;" vertex="1" parent="1">
          <mxGeometry x="364" y="260" width="100" height="30" as="geometry" />
        </mxCell>
        <mxCell id="6DJzkv-PkJwYkkrWsRg8-29" value="" style="shape=corner;whiteSpace=wrap;html=1;" vertex="1" parent="1">
          <mxGeometry x="490" y="350" width="10" height="120" as="geometry" />
        </mxCell>
        <mxCell id="6DJzkv-PkJwYkkrWsRg8-30" value="" style="endArrow=classic;html=1;rounded=0;entryX=0;entryY=0;entryDx=0;entryDy=0;entryPerimeter=0;" edge="1" parent="1" target="6DJzkv-PkJwYkkrWsRg8-29">
          <mxGeometry width="50" height="50" relative="1" as="geometry">
            <mxPoint x="374" y="350" as="sourcePoint" />
            <mxPoint x="464" y="350" as="targetPoint" />
          </mxGeometry>
        </mxCell>
        <mxCell id="6DJzkv-PkJwYkkrWsRg8-31" value="Запрос данных&amp;nbsp;&lt;div&gt;из таблицы&lt;/div&gt;" style="text;html=1;align=center;verticalAlign=middle;resizable=0;points=[];autosize=1;strokeColor=none;fillColor=none;" vertex="1" parent="1">
          <mxGeometry x="374" y="330" width="110" height="40" as="geometry" />
        </mxCell>
        <mxCell id="6DJzkv-PkJwYkkrWsRg8-33" value="" style="endArrow=open;endSize=12;dashed=1;html=1;rounded=0;entryX=0.989;entryY=0.954;entryDx=0;entryDy=0;entryPerimeter=0;" edge="1" parent="1">
          <mxGeometry y="-70" width="160" relative="1" as="geometry">
            <mxPoint x="490" y="380.19" as="sourcePoint" />
            <mxPoint x="373.8900000000001" y="380" as="targetPoint" />
            <mxPoint as="offset" />
          </mxGeometry>
        </mxCell>
        <mxCell id="6DJzkv-PkJwYkkrWsRg8-34" value="Данные клиента" style="text;html=1;align=center;verticalAlign=middle;resizable=0;points=[];autosize=1;strokeColor=none;fillColor=none;" vertex="1" parent="1">
          <mxGeometry x="380" y="380" width="110" height="30" as="geometry" />
        </mxCell>
        <mxCell id="6DJzkv-PkJwYkkrWsRg8-35" value="" style="endArrow=open;endSize=12;dashed=1;html=1;rounded=0;entryX=0.91;entryY=0.498;entryDx=0;entryDy=0;entryPerimeter=0;" edge="1" parent="1" target="6DJzkv-PkJwYkkrWsRg8-6">
          <mxGeometry y="-70" width="160" relative="1" as="geometry">
            <mxPoint x="362.5" y="394.67" as="sourcePoint" />
            <mxPoint x="255" y="394.67" as="targetPoint" />
            <mxPoint as="offset" />
          </mxGeometry>
        </mxCell>
        <mxCell id="6DJzkv-PkJwYkkrWsRg8-37" value="Данные клиента" style="text;html=1;align=center;verticalAlign=middle;resizable=0;points=[];autosize=1;strokeColor=none;fillColor=none;" vertex="1" parent="1">
          <mxGeometry x="252.5" y="370" width="110" height="30" as="geometry" />
        </mxCell>
        <mxCell id="6DJzkv-PkJwYkkrWsRg8-38" value="" style="endArrow=open;endSize=12;dashed=1;html=1;rounded=0;" edge="1" parent="1">
          <mxGeometry y="-70" width="160" relative="1" as="geometry">
            <mxPoint x="102.5" y="280" as="sourcePoint" />
            <mxPoint x="230" y="280" as="targetPoint" />
            <mxPoint as="offset" />
          </mxGeometry>
        </mxCell>
        <mxCell id="6DJzkv-PkJwYkkrWsRg8-39" value="" style="endArrow=open;endSize=12;dashed=1;html=1;rounded=0;entryX=0.801;entryY=0.433;entryDx=0;entryDy=0;entryPerimeter=0;" edge="1" parent="1">
          <mxGeometry y="-70" width="160" relative="1" as="geometry">
            <mxPoint x="230.48" y="410" as="sourcePoint" />
            <mxPoint x="102.4950000000001" y="410.1599999999999" as="targetPoint" />
            <mxPoint as="offset" />
          </mxGeometry>
        </mxCell>
        <mxCell id="6DJzkv-PkJwYkkrWsRg8-40" value="Положительный ответ" style="text;html=1;align=center;verticalAlign=middle;resizable=0;points=[];autosize=1;strokeColor=none;fillColor=none;" vertex="1" parent="1">
          <mxGeometry x="87.5" y="380" width="150" height="30" as="geometry" />
        </mxCell>
        <mxCell id="6DJzkv-PkJwYkkrWsRg8-41" value="" style="endArrow=none;html=1;rounded=0;" edge="1" parent="1">
          <mxGeometry width="50" height="50" relative="1" as="geometry">
            <mxPoint x="-60" y="369.28999999999996" as="sourcePoint" />
            <mxPoint x="770" y="369.28999999999996" as="targetPoint" />
          </mxGeometry>
        </mxCell>
      </root>
    </mxGraphModel>
  </diagram>
</mxfile>
